<?xml version="1.0" encoding="iso-8859-1"?>
<!-- Uploaded to: SVG Repo, www.svgrepo.com, Generator: SVG Repo Mixer Tools -->
<svg fill="#000000" version="1.1" id="Layer_1" xmlns="http://www.w3.org/2000/svg" xmlns:xlink="http://www.w3.org/1999/xlink" 
	 viewBox="0 0 496 496" xml:space="preserve">
<g>
	<g>
		<g>
			<path d="M313.736,0h-19.472L112,82.848v49.568l16-7.272V224H64v144h272v-32h144V125.152l16,7.272V82.848L313.736,0z M112,240h16
				v32h-16V240z M160,352H80V240h16v48h48v-48h16V352z M320,352H176V240h144V352z M352,320h-16v-96h-80v-48h96V320z M464,320h-96
				V160H240v64h-96V117.88L297.736,48h12.528L464,117.88V320z M480,107.576L313.736,32h-19.472L128,107.576V93.144L297.736,16
				h12.528L480,93.152V107.576z"/>
			<path d="M304.304,409.28c-6.024-2.016-12.696-1.424-18.28,1.624l-17.624,9.632l2.424-7.2c2.28-6.768,1.16-14.272-3.008-20.08
				c-4.176-5.784-10.928-9.256-18.072-9.256c-9.152,0-17.256,5.488-20.656,13.984l-10.392,25.984h-24.632l-0.44-0.216l17.296-9.192
				c10.424-5.52,15.496-17.72,12.072-29c-1.968-6.504-6.4-11.8-12.472-14.872c-6.064-3.072-12.944-3.528-19.368-1.28l-65.632,23.024
				l-23.776,15.544H48.168V392H0v16h32.168v72H0v16h48.168v-14.272l30.432,6.088l106.36,0.16l80.784-16.16l41.456-20.16
				c11.168-5.504,15.888-18.72,10.76-30.072C315.32,415.792,310.352,411.304,304.304,409.28z M243.944,403.928
				c1.704-4.296,8.176-5.08,10.864-1.328c1.184,1.656,1.504,3.704,0.848,5.632l-5.296,15.736h-14.44L243.944,403.928z
				 M300.12,437.312l-38.544,19.016l-78.184,15.64H80.96l-32.792-6.56v-41.44h58.424l25.176-16.784l64.68-22.696
				c2.264-0.784,4.704-0.632,6.832,0.456c2.144,1.088,3.704,2.952,4.4,5.248c1.208,3.976-0.576,8.272-4.256,10.224l-44.704,23.768
				l31.56,15.784h75.936l27.48-15.016c1.712-0.944,3.68-1.136,5.536-0.496c1.856,0.616,3.336,1.944,4.144,3.728
				C304.936,431.632,303.504,435.64,300.12,437.312z"/>
			<rect x="288" y="320" width="16" height="16"/>
			<rect x="240" y="320" width="32" height="16"/>
			<rect x="224" y="288" width="80" height="16"/>
		</g>
	</g>
</g>
</svg>