<?xml version="1.0" ?><!-- Uploaded to: SVG Repo, www.svgrepo.com, Generator: SVG Repo Mixer Tools -->
<svg width="800px" height="800px" viewBox="0 0 96 96" data-name="Your Icons" id="Your_Icons" xmlns="http://www.w3.org/2000/svg"><defs><style>.cls-1{fill:#231f20;}</style></defs><title/><path class="cls-1" d="M71,17.1H44.81a2.51,2.51,0,0,0-2.5,2.5v8.76H25.67a2.5,2.5,0,0,0-2.5,2.5V78.71H73.5V19.6A2.51,2.51,0,0,0,71,17.1ZM42.31,77.71H24.17V30.86a1.5,1.5,0,0,1,1.5-1.5H42.31Zm21.39,0H52.11V67a4.62,4.62,0,0,1,4.61-4.61h2.37A4.62,4.62,0,0,1,63.7,67Zm8.8,0H64.7V67a5.61,5.61,0,0,0-5.61-5.61H56.72A5.62,5.62,0,0,0,51.11,67V77.71h-7.8V19.6a1.51,1.51,0,0,1,1.5-1.5H71a1.5,1.5,0,0,1,1.5,1.5Z"/><path class="cls-1" d="M39.87,51.22H34.29V56.8h5.58Zm-1,4.58H35.29V52.22h3.58Z"/><path class="cls-1" d="M32.52,51.22H26.94V56.8h5.58Zm-1,4.58H27.94V52.22h3.58Z"/><path class="cls-1" d="M39.87,43H34.29v5.58h5.58Zm-1,4.58H35.29V44h3.58Z"/><path class="cls-1" d="M32.52,43H26.94v5.58h5.58Zm-1,4.58H27.94V44h3.58Z"/><path class="cls-1" d="M39.87,34.73H34.29v5.58h5.58Zm-1,4.58H35.29V35.73h3.58Z"/><path class="cls-1" d="M32.52,34.73H26.94v5.58h5.58Zm-1,4.58H27.94V35.73h3.58Z"/><path class="cls-1" d="M49.65,56.36h4.82V51.53H49.65Zm1-3.83h2.82v2.83H50.65Z"/><path class="cls-1" d="M55.49,56.36h4.83V51.53H55.49Zm1-3.83h2.83v2.83H56.49Z"/><path class="cls-1" d="M61.34,56.36h4.83V51.53H61.34Zm1-3.83h2.83v2.83H62.34Z"/><path class="cls-1" d="M49.65,50.51h4.82V45.68H49.65Zm1-3.83h2.82v2.83H50.65Z"/><path class="cls-1" d="M55.49,50.51h4.83V45.68H55.49Zm1-3.83h2.83v2.83H56.49Z"/><path class="cls-1" d="M61.34,50.51h4.83V45.68H61.34Zm1-3.83h2.83v2.83H62.34Z"/><path class="cls-1" d="M39.87,59.47H34.29v5.58h5.58Zm-1,4.58H35.29V60.47h3.58Z"/><path class="cls-1" d="M32.52,59.47H26.94v5.58h5.58Zm-1,4.58H27.94V60.47h3.58Z"/><path class="cls-1" d="M39.87,67.71H34.29v5.58h5.58Zm-1,4.58H35.29V68.71h3.58Z"/><path class="cls-1" d="M32.52,67.71H26.94v5.58h5.58Zm-1,4.58H27.94V68.71h3.58Z"/><path class="cls-1" d="M57.91,22.78a9.5,9.5,0,1,0,9.49,9.5A9.51,9.51,0,0,0,57.91,22.78Zm0,18a8.5,8.5,0,1,1,8.49-8.5A8.51,8.51,0,0,1,57.91,40.78Z"/><path class="cls-1" d="M59.76,26.83h-3.7v3.6h-3.6v3.7h3.6v3.6h3.7v-3.6h3.59v-3.7H59.76Zm2.59,4.6v1.7H58.76v3.6h-1.7v-3.6h-3.6v-1.7h3.6v-3.6h1.7v3.6Z"/></svg>