<?xml version="1.0" ?>
<!DOCTYPE svg  PUBLIC '-//W3C//DTD SVG 1.1//EN'  'http://www.w3.org/Graphics/SVG/1.1/DTD/svg11.dtd'>
<!-- Uploaded to: SVG Repo, www.svgrepo.com, Generator: SVG Repo Mixer Tools -->
<svg fill="#000000" width="800px" height="800px" viewBox="0 0 2.33333 2.33333" style="shape-rendering:geometricPrecision; text-rendering:geometricPrecision; image-rendering:optimizeQuality; fill-rule:evenodd; clip-rule:evenodd" xml:space="preserve" xmlns="http://www.w3.org/2000/svg" xmlns:xlink="http://www.w3.org/1999/xlink">
<defs>
<style type="text/css">
   <![CDATA[
    .fil0 {fill:black}
   ]]>
  </style>
</defs>
<g id="Layer_x0020_1">
<path class="fil0" d="M1.9978 1.44695l-1.46385 0c-0.0111024,0 -0.0194252,-0.00832677 -0.0194252,-0.0194252l0 -0.180378c0,-0.025752 0.0388465,-0.025752 0.0388465,0l0 0.160953 1.425 0 0 -0.367697c0,-0.226165 -0.184543,-0.409323 -0.410709,-0.409323l-0.603579 0c-0.131815,0 -0.255303,0.0638268 -0.333008,0.172051 -0.0166732,0.0215394 -0.0471417,-0.00390945 -0.0319134,-0.0235866 0.0846378,-0.117941 0.220618,-0.188705 0.364921,-0.188705l0.604965 3.93701e-006c0.24837,0 0.450949,0.201189 0.450949,0.449559l0 0.387122c-0.00138583,0.0110984 -0.0111024,0.0194252 -0.0222008,0.0194252z"/>
<path class="fil0" d="M1.26657 1.44695c-0.0111024,0 -0.0194252,-0.00832677 -0.0194252,-0.0194252l0 -0.387122c-0.00138976,-0.202583 -0.151244,-0.376024 -0.351047,-0.406547 -0.0111024,-0.00138583 -0.0180394,-0.0124882 -0.0166535,-0.0222008 0.00138976,-0.00971654 0.0124882,-0.0180394 0.0222008,-0.0166535 0.219232,0.0333031 0.382961,0.224783 0.382961,0.445398l0 0.387122c0.00138976,0.0111024 -0.00693701,0.0194291 -0.0180354,0.0194291z"/>
<path class="fil0" d="M1.3526 1.91732l-0.174831 0c-0.0111024,0 -0.0194252,-0.00832283 -0.0194252,-0.0194252l0 -0.470374c0,-0.0111024 0.00832283,-0.0194252 0.0194252,-0.0194252l0.174831 0c0.0110984,0 0.0194252,0.00832283 0.0194252,0.0194252l0 0.470374c0.00138583,0.0110984 -0.00832677,0.0194252 -0.0194252,0.0194252zm-0.154016 -0.0388504l0.134587 0 0 -0.430138 -0.134587 0 0 0.430138z"/>
<path class="fil0" d="M1.50106 2.00474l-0.470374 0c-0.0111024,0 -0.0194252,-0.00832283 -0.0194252,-0.0194252l0 -0.0888031c0,-0.0110984 0.00832283,-0.0194213 0.0194252,-0.0194213l0.470374 0c0.0111024,0 0.0194252,0.00832283 0.0194252,0.0194213l0 0.0874173c0,0.0124882 -0.00832677,0.020811 -0.0194252,0.020811zm-0.450949 -0.0402362l0.430134 0 0 -0.048563 -0.430134 -3.93701e-006 0 0.0485669z"/>
<path class="fil0" d="M1.04872 1.26657l-0.697929 0c-0.020811,0 -0.0374606,-0.0152638 -0.0374606,-0.0360787l0 -0.424583c0,-0.020815 0.0166496,-0.0360787 0.0374606,-0.0360787l0.697929 0c0.020815,0 0.0360787,0.0152638 0.0360787,0.0360787l0 0.424583c0,0.020815 -0.0166535,0.0360787 -0.0360787,0.0360787zm-0.69515 -0.0402402l0.690988 0 0 -0.41626 -0.690988 0 0 0.41626zm0.69515 -0.41626l0 0z"/>
<path class="fil0" d="M0.697681 1.12643c-0.0097126,0 -0.0180394,-0.00277559 -0.0249764,-0.00971654l-0.349657 -0.302476c-0.0227717,-0.0227717 0.00636614,-0.0499646 0.027752,-0.027752l0.346886 0.299709 0.351039 -0.302488c0.0206811,-0.0191969 0.0458386,0.0112362 0.027752,0.027752l-0.00415748 0.00416142 -0.348276 0.301094c-0.00693701,0.00694094 -0.0166496,0.00971654 -0.0263622,0.00971654zm-0.362146 -0.306646c0,0 0,0 0,0z"/>
<path class="fil0" d="M1.05844 1.26379c-0.00416535,0 -0.00971654,-0.00138583 -0.0124882,-0.00554724l-0.255307 -0.222004c-0.019811,-0.0168701 0.00684646,-0.0473465 0.0263661,-0.0291417l0.255307 0.222004c0.0154173,0.0131299 0.00282283,0.034689 -0.013878,0.034689zm-0.718744 -0.00138583c-0.017811,0 -0.0276496,-0.0230394 -0.013878,-0.034689l0.255307 -0.219228c0.0208071,-0.0176063 0.0450157,0.013311 0.0263622,0.0291378l-0.255303 0.220618c-0.00416142,0.00277559 -0.00832677,0.00416142 -0.0124882,0.00416142z"/>
<path class="fil0" d="M1.51355 1.08619c-0.069378,0 -0.124878,-0.0555 -0.124878,-0.123492 0,-0.069378 0.0555,-0.124878 0.124878,-0.124878 0.0679882,0 0.123492,0.0555 0.123492,0.124878 0,0.0679921 -0.0555039,0.123492 -0.123492,0.123492zm0 -0.20813c-0.0471772,0 -0.0846378,0.0374606 -0.0846378,0.0846378 0,0.0457913 0.0374606,0.083252 0.0846378,0.083252 0.0457913,0 0.083252,-0.0374606 0.083252,-0.083252 0,-0.0471772 -0.0374646,-0.0846378 -0.083252,-0.0846378z"/>
<path class="fil0" d="M1.51355 0.878059c-0.0111024,0 -0.0194252,-0.00832283 -0.0194252,-0.0194252l-3.93701e-006 -0.509224c0,-0.025752 0.0388504,-0.025752 0.0388504,0l0 0.507839c3.93701e-006,0.0124882 -0.00970866,0.020811 -0.0194213,0.020811z"/>
<path class="fil0" d="M1.51355 0.484l-0.210906 0c-0.0182638,0 -0.0254016,-0.0231614 -0.013874,-0.034689l0.0430118 -0.0430118 -0.0430118 -0.0430118c-0.0104843,-0.0104843 -0.00627165,-0.034689 0.013874,-0.034689l0.210906 -3.93701e-006c0.0111024,0 0.0194252,0.00832283 0.0194252,0.0194252l0 0.115165c0,0.0124882 -0.0097126,0.020815 -0.0194252,0.020815zm-0.162343 -0.0388504l0.141528 0 0 -0.0749291 -0.142913 0c0.0394409,0.0394409 0.0394213,0.0345118 0.00138583,0.0749291z"/>
</g>
</svg>