<?xml version="1.0" encoding="iso-8859-1"?>
<!-- Uploaded to: SVG Repo, www.svgrepo.com, Generator: SVG Repo Mixer Tools -->
<svg fill="#000000" height="800px" width="800px" version="1.1" id="Capa_1" xmlns="http://www.w3.org/2000/svg" xmlns:xlink="http://www.w3.org/1999/xlink" 
	 viewBox="0 0 360 360" xml:space="preserve">
<g id="XMLID_942_">
	<path id="XMLID_943_" d="M345,123.612h-50V77.834L211.977,0H15v360h280v-53.66h50V123.612z M315,276.34H105V153.612h210V276.34z"/>
	<path id="XMLID_946_" d="M172.897,222.176h16.128c3.135,0,6.015-0.639,8.64-1.92c2.624-1.279,4.862-2.977,6.72-5.088
		c1.855-2.112,3.296-4.527,4.32-7.248c1.023-2.72,1.535-5.521,1.535-8.4c0-2.751-0.544-5.487-1.631-8.208
		c-1.09-2.72-2.592-5.15-4.513-7.296c-1.92-2.143-4.209-3.871-6.864-5.184c-2.656-1.312-5.553-1.969-8.688-1.969h-28.896v68.16
		h13.248V222.176z M172.897,188.48h14.785c1.151,0,2.287,0.24,3.407,0.72c1.119,0.48,2.096,1.2,2.929,2.16
		c0.83,0.96,1.502,2.129,2.016,3.504c0.512,1.377,0.768,2.929,0.768,4.656c0,3.394-0.816,6.081-2.447,8.064
		c-1.633,1.984-3.665,2.976-6.097,2.976h-15.36V188.48z"/>
	<polygon id="XMLID_949_" points="267.455,233.407 232.703,233.407 232.703,176.863 219.455,176.863 219.455,245.023 
		267.455,245.023 	"/>
</g>
</svg>